<svg xmlns="http://www.w3.org/2000/svg" width="33.542" height="35" viewBox="0 0 33.542 35">
  <g id="CALL" transform="translate(0)">
    <g id="Group_84" data-name="Group 84" transform="translate(0 0)">
      <path id="Path_44" data-name="Path 44" d="M28.627,5.123a16.281,16.281,0,0,0-23.718,0,18.043,18.043,0,0,0,0,24.749,16.281,16.281,0,0,0,23.718,0,18.043,18.043,0,0,0,0-24.749ZM25.4,24.377l0,0v-.006l-.85.881a4.35,4.35,0,0,1-4.221,1.26A14.565,14.565,0,0,1,16.01,24.5a20.122,20.122,0,0,1-3.4-2.864,20.8,20.8,0,0,1-2.544-3.22A16.63,16.63,0,0,1,8.15,14.375,4.809,4.809,0,0,1,9.268,9.609l1-1.038a.689.689,0,0,1,1,0l0,0,3.142,3.278a.764.764,0,0,1,0,1.048l0,0-1.845,1.925a1.62,1.62,0,0,0-.157,2.042,22.285,22.285,0,0,0,2.208,2.689A21.694,21.694,0,0,0,17.525,22.1a1.468,1.468,0,0,0,1.934-.175l1.783-1.89a.689.689,0,0,1,1,0l0,0L25.4,23.33A.764.764,0,0,1,25.4,24.377Z" transform="translate(0 0)"/>
    </g>
  </g>
</svg>
