<?xml version="1.0" encoding="utf-8"?>
<!-- Generator: Adobe Illustrator 19.0.0, SVG Export Plug-In . SVG Version: 6.00 Build 0)  -->
<svg version="1.1" id="Layer_1" xmlns="http://www.w3.org/2000/svg" xmlns:xlink="http://www.w3.org/1999/xlink" x="0px" y="0px"
	 viewBox="0 0 227.4 50.1" style="enable-background:new 0 0 227.4 50.1;" xml:space="preserve">
<style type="text/css">
	.st0{fill:#929497;}
	.st1{fill:#B01117;}
	.st2{fill:#002561;}
	.st3{fill:#FFFFFF;}
</style>
<path id="XMLID_153_" class="st0" d="M28.3,7.2c1.1-1.1,2.8-2.5,4.6-2.8C34,4.1,35,4.2,35.8,4.8c-1,0.1-3.4,1.1-6.6,3.4
	c0.3,0.3,0.5,0.7,0.8,1c1.6-1.5,4.7-3.6,6.7-3.2c0.1,0.2,0.1,0.4,0.2,0.6c-0.8,0.1-3.3,1.3-6.1,3.8c0.2,0.4,0.4,0.8,0.6,1.1
	c2.2-1.9,4.4-3.7,5.7-3.3c0,0.9,0,2.1-0.2,3.4c-0.1,0.5-0.2,1-0.3,1.6c0.5,0.1,1.1,0.2,1.6,0.4c1.1-5.2-0.1-7.4-1.7-8.9
	C34,2.5,30.2,3.6,27.1,6C27.5,6.3,27.9,6.7,28.3,7.2"/>
<path id="XMLID_152_" class="st0" d="M31.8,37.9c0.8-1.1,1.5-2.1,2.3-3.2v0c0,0,0,0,0,0c2.7-4,4.9-7.8,6.4-11.2
	c-0.5-0.2-1-0.3-1.6-0.5c-1.5,3.5-3.3,6.6-4.7,8.1c1.6-3.1,2.8-5.9,3.8-8.3c-0.5-0.1-1.1-0.3-1.7-0.4c-1.4,2.9-3,5.5-4.5,7.6
	c1.4-2.9,2.6-5.5,3.5-7.8c-0.6-0.1-1.2-0.2-1.8-0.3c-1.9,4.1-4.2,8.1-6.1,10.8C28.9,34.9,30.4,36.6,31.8,37.9"/>
<path id="XMLID_151_" class="st0" d="M40.7,7.4c1.3,1.5,1.4,4.3,0.8,7.4c0.5,0.2,1,0.4,1.5,0.7C43.9,11.1,43,8.2,40.7,7.4"/>
<path id="XMLID_150_" class="st0" d="M38.2,5.6c1.6,2,1.7,5.1,1.1,8.4c0.5,0.1,0.9,0.3,1.3,0.4C41.9,7.9,39.5,6.2,38.2,5.6"/>
<path id="XMLID_149_" class="st0" d="M10.7,38.5c1.4,6.7,6.4,6.1,10,2.6c-2.4,1.9-6.4,2.8-7.9,0.3c-1.3-2.2-0.3-8.7,1.1-12.9
	c-0.4-0.8-0.8-1.7-1.2-2.5C11.4,29,9.8,34.2,10.7,38.5"/>
<path id="XMLID_148_" class="st0" d="M14.5,29.7c-1,3.3-2.2,7.1-0.6,12.4c0.4,0.6,1.4,0.5,1.4,0.5c-1.1-2.8-1-6.1,0.5-10.6
	c-0.2-0.3-0.3-0.6-0.5-0.9C15,30.6,14.7,30.2,14.5,29.7"/>
<path id="XMLID_147_" class="st0" d="M15.9,42.6c0.4,0.1,1.4-0.2,1.4-0.2c-1-1-0.3-5.1,0.4-7.5c-0.3-0.5-0.7-1-1-1.5
	C15.3,37.3,15.2,41.3,15.9,42.6"/>
<path id="XMLID_146_" class="st0" d="M23,42.2c-1.2,1.7-5,2.9-7.5,2.2C18.3,46.6,22.1,44.7,23,42.2"/>
<path id="XMLID_145_" class="st0" d="M18.7,45.9c2.5,1.6,4.7,0.2,6.6-2C23.3,45.3,20.7,46.2,18.7,45.9"/>
<path id="XMLID_144_" class="st1" d="M17,7.7c0.2,0,0.4,0.1,0.7,0.1c2.1,0.4,4.3,2.1,6.3,4.1c-1.7-3-4.3-4.5-6.1-5.3
	c-0.3-0.1-0.5-0.2-0.7-0.2c0-0.1,0.1-0.2,0.1-0.4c0.2-0.1,0.4-0.1,0.9,0c4.2,0.6,7.4,3.1,9.8,6.1c-2.8-4.9-6.9-6.9-9.1-7.4
	c-0.2-0.1-0.4-0.1-0.6-0.1c0.1,0,0.1-0.1,0.2-0.1c2.4-1.4,7.6,1.3,12.7,7.8C28.6,6.7,22.2,1.7,19,3.6c-0.2,0.1-0.9,0.5-1.2,0.6
	c-2.4,1.4-3.1,4.8-2.3,9.4c0.6-0.2,1.3-0.3,2-0.4C17,11,16.9,9.2,17,7.7"/>
<path id="XMLID_143_" class="st1" d="M36.2,35.9c0,0,1.4,4.3,0.1,5.9c-3.6-1.7-8.9-7.2-13.3-14.9c-1-1.7-1.8-3.4-2.6-5.1
	c-0.8,0.1-1.5,0.2-2.2,0.3c0.8,1.9,1.8,3.8,2.9,5.7c4.8,8.3,10.3,13.4,10.3,13.4c-3.8-2.6-7.2-5.7-11.3-12.8c-1.2-2-2.2-4.1-3-6.1
	c-0.6,0.1-1.2,0.2-1.7,0.3c1,2.6,2.2,4.9,3.2,6.6c4.8,8.4,10.3,13.4,10.3,13.4c-3.8-2.6-7.2-5.7-11.3-12.8c-1.3-2.3-2.5-4.7-3.3-7
	c-0.7,0.2-1.4,0.4-2.1,0.5c0.9,2.4,2.1,4.9,3.5,7.5c6.1,10.7,14.8,17.2,19.4,14.6c0,0,5.3-3.1,6.2-3.6c1.6-0.9,2.9-4.9,1.6-7.2
	c-0.5,0.2-1.1,0.3-1.6,0.5C38.5,36,36.2,35.9,36.2,35.9"/>
<path id="XMLID_142_" class="st1" d="M15.9,5.3c-2.8,1.7-3.4,5.1-2.9,9c0.5-0.2,1.1-0.3,1.7-0.5C14.1,10.1,14.5,7.1,15.9,5.3"/>
<path id="XMLID_141_" class="st1" d="M13.3,6.8c-2.4,1.4-3.3,4.5-3,8.5c0.6-0.3,1.2-0.5,1.8-0.7C11.7,11.2,12.1,8.5,13.3,6.8"/>
<path id="XMLID_140_" class="st2" d="M45.7,26c-1.5,1.5-4.4,2.9-7,3.5c3.3,0,6.3-1.6,7.9-2.8C46.4,26.5,46.1,26.2,45.7,26"/>
<path id="XMLID_139_" class="st2" d="M47,27.2c-2.7,3.2-7,4.8-10.7,5.3c5.1,0,9.2-2,11-3.7c0.1-0.2,0.1-0.4,0.1-0.5
	C47.4,28,47.3,27.6,47,27.2"/>
<path id="XMLID_138_" class="st2" d="M4.4,22.4c0-5.3,10-9.6,22.2-9.6c12.3,0,21.9,4.1,21.9,9.9c-2-4.4-11.1-7.8-21.9-7.8
	c-8.2,0-12.6,1.4-16.7,3.4c0,0,7.1-2.3,16.7-2.3c7.1,0,21.9,1.9,21.9,9.7c-1.8-4.5-10.9-8-21.9-8c-8.2,0-12.6,1.4-16.7,3.4
	c0,0,7.1-2.3,16.7-2.3c12.3,0,21.9,3.8,21.9,9c0,0.3,0,1.1-0.1,1.3c0,3.7-8.2,6.5-14.3,5.9c8.1-1.2,13.7-4.1,13.7-6.9
	c0-3.5-9.7-7.3-21.5-7.3c-8.9,0-16.2,1.9-19.5,4.1c0.8,1.9,4.2,2.7,4.2,2.7s-0.7,2.5-1.3,6.7c-2.6,0-5.5-3.1-5.5-5V22.4z"/>
<path id="XMLID_135_" class="st1" d="M59.1,39.2c0.2,0.2,0.4,0.4,0.5,0.4c0.1,0.1,0.3,0.2,0.4,0.3l-0.5,1.4
	c-0.3-0.2-0.5-0.4-0.8-0.6c-0.3-0.2-0.4-0.4-0.5-0.5c-0.4,0.2-1,0.4-1.6,0.4c-0.9,0-1.7-0.3-2.2-1c-0.6-0.8-1-1.8-1-3.2
	c0-1.3,0.3-2.4,0.8-3.1c0.6-0.7,1.3-1.1,2.4-1.1c1,0,1.8,0.4,2.4,1.1c0.6,0.7,0.8,1.8,0.8,3.1C59.7,37.5,59.5,38.5,59.1,39.2
	 M57.6,37.9c0.2-0.4,0.2-0.9,0.2-1.6c0-0.8-0.1-1.4-0.3-1.7c-0.2-0.3-0.6-0.5-1-0.5c-0.4,0-0.7,0.2-0.9,0.5
	c-0.2,0.4-0.3,0.9-0.3,1.7c0,0.9,0.1,1.5,0.3,1.9c0.2,0.4,0.5,0.5,0.9,0.5c0.1,0,0.3,0,0.4,0c-0.2-0.2-0.4-0.4-0.8-0.6l0.3-0.9
	c0.2,0,0.3,0.1,0.4,0.1c0.1,0.1,0.3,0.2,0.6,0.5C57.4,37.8,57.5,37.9,57.6,37.9"/>
<path id="XMLID_132_" class="st1" d="M64.7,39h-2.2l-0.3,1.3h-1.9l2.3-8.1h2.1l2.3,8.1h-2L64.7,39z M64.3,37.3l-0.7-2.9L63,37.3
	H64.3z"/>
<polygon id="XMLID_131_" class="st1" points="66.6,32.3 72.4,32.3 72.4,34.3 70.5,34.3 70.5,40.4 68.6,40.4 68.6,34.3 66.6,34.3 "/>
<path id="XMLID_128_" class="st1" d="M76.5,39h-2.2L74,40.4h-1.9l2.3-8.1h2.1l2.3,8.1h-2L76.5,39z M76.1,37.3l-0.7-2.9l-0.7,2.9
	H76.1z"/>
<path id="XMLID_125_" class="st1" d="M79.4,40.4v-8.1h3.2c0.6,0,1,0.1,1.4,0.2c0.3,0.1,0.6,0.4,0.8,0.7c0.2,0.4,0.3,0.8,0.3,1.3
	c0,0.4-0.1,0.8-0.2,1.2c-0.1,0.3-0.3,0.6-0.6,0.8c-0.2,0.1-0.4,0.2-0.7,0.3c0.2,0.1,0.4,0.2,0.5,0.3c0.1,0.1,0.2,0.2,0.3,0.4
	c0.1,0.2,0.2,0.4,0.3,0.5l0.9,2.3h-2.2l-1-2.5c-0.1-0.3-0.2-0.5-0.4-0.6c-0.1-0.1-0.3-0.2-0.5-0.2h-0.2v3.3H79.4z M81.4,35.6h0.8
	c0.1,0,0.3,0,0.5-0.1c0.1,0,0.2-0.1,0.3-0.3c0.1-0.1,0.1-0.3,0.1-0.5c0-0.3-0.1-0.5-0.2-0.6c-0.1-0.1-0.4-0.2-0.7-0.2h-0.8V35.6z"/>
<polygon id="XMLID_124_" class="st1" points="89,32.3 90.8,32.3 93.1,36.8 93.1,32.3 94.9,32.3 94.9,40.4 93.1,40.4 90.8,35.9 
	90.8,40.4 89,40.4 "/>
<path id="XMLID_121_" class="st1" d="M99.9,39h-2.2l-0.3,1.3h-2l2.3-8.1h2.1l2.3,8.1h-2L99.9,39z M99.5,37.3l-0.7-2.9l-0.7,2.9H99.5
	z"/>
<polygon id="XMLID_120_" class="st1" points="101.8,32.3 107.6,32.3 107.6,34.3 105.7,34.3 105.7,40.4 103.8,40.4 103.8,34.3 
	101.8,34.3 "/>
<rect id="XMLID_119_" x="108.6" y="32.3" class="st1" width="1.9" height="8.1"/>
<path id="XMLID_116_" class="st1" d="M111.6,36.3c0-1.3,0.3-2.3,0.8-3.1s1.3-1.1,2.3-1.1c1,0,1.8,0.4,2.4,1.1c0.6,0.7,0.8,1.7,0.8,3
	c0,0.9-0.1,1.7-0.4,2.3c-0.2,0.6-0.6,1.1-1.1,1.4c-0.5,0.3-1,0.5-1.7,0.5c-0.7,0-1.3-0.1-1.7-0.4c-0.5-0.3-0.8-0.8-1.1-1.4
	C111.8,38.1,111.6,37.3,111.6,36.3 M113.5,36.4c0,0.8,0.1,1.4,0.3,1.8c0.2,0.4,0.5,0.5,0.9,0.5c0.4,0,0.7-0.2,1-0.5
	c0.2-0.3,0.3-1,0.3-1.9c0-0.8-0.1-1.3-0.4-1.7c-0.2-0.4-0.6-0.5-1-0.5c-0.4,0-0.7,0.2-0.9,0.5C113.7,34.9,113.5,35.5,113.5,36.4"/>
<polygon id="XMLID_115_" class="st1" points="119.1,32.3 120.9,32.3 123.2,36.8 123.2,32.3 125,32.3 125,40.4 123.2,40.4 
	120.9,35.9 120.9,40.4 119.1,40.4 "/>
<path id="XMLID_112_" class="st1" d="M130,39h-2.2l-0.3,1.3h-1.9l2.3-8.1h2.1l2.3,8.1h-2L130,39z M129.6,37.3l-0.7-2.9l-0.7,2.9
	H129.6z"/>
<polygon id="XMLID_111_" class="st1" points="132.9,32.3 134.8,32.3 134.8,38.4 137.8,38.4 137.8,40.4 132.9,40.4 "/>
<polygon id="XMLID_110_" class="st1" points="141.1,32.3 146.9,32.3 146.9,34.3 145,34.3 145,40.4 143.1,40.4 143.1,34.3 
	141.1,34.3 "/>
<path id="XMLID_107_" class="st1" d="M147.8,40.4v-8.1h3.2c0.6,0,1,0.1,1.4,0.2c0.3,0.1,0.6,0.4,0.8,0.7c0.2,0.4,0.3,0.8,0.3,1.3
	c0,0.4-0.1,0.8-0.2,1.2c-0.1,0.3-0.3,0.6-0.6,0.8c-0.2,0.1-0.4,0.2-0.7,0.3c0.2,0.1,0.4,0.2,0.5,0.3c0.1,0.1,0.2,0.2,0.3,0.4
	c0.1,0.2,0.2,0.4,0.3,0.5l0.9,2.3h-2.2l-1-2.5c-0.1-0.3-0.2-0.5-0.3-0.6c-0.1-0.1-0.3-0.2-0.5-0.2h-0.2v3.3H147.8z M149.7,35.6h0.8
	c0.1,0,0.3,0,0.5-0.1c0.1,0,0.2-0.1,0.3-0.3c0.1-0.1,0.1-0.3,0.1-0.5c0-0.3-0.1-0.5-0.2-0.6c-0.1-0.1-0.4-0.2-0.7-0.2h-0.8V35.6z"/>
<path id="XMLID_104_" class="st1" d="M158.3,39h-2.2l-0.3,1.3h-1.9l2.3-8.1h2.1l2.3,8.1h-2L158.3,39z M157.9,37.3l-0.7-2.9l-0.7,2.9
	H157.9z"/>
<path id="XMLID_101_" class="st1" d="M161.3,32.3h2.8c0.6,0,1,0.1,1.4,0.3c0.3,0.2,0.6,0.5,0.9,0.9c0.2,0.4,0.4,0.8,0.5,1.3
	c0.1,0.5,0.2,1,0.2,1.6c0,0.9-0.1,1.5-0.2,2c-0.1,0.5-0.4,0.9-0.6,1.2c-0.3,0.3-0.6,0.5-0.9,0.6c-0.4,0.1-0.8,0.2-1.1,0.2h-2.8V32.3
	z M163.2,34.1v4.4h0.5c0.4,0,0.7-0.1,0.9-0.2c0.2-0.1,0.3-0.3,0.4-0.6c0.1-0.3,0.1-0.8,0.1-1.4c0-0.9-0.1-1.4-0.3-1.8
	c-0.2-0.3-0.6-0.5-1.1-0.5H163.2z"/>
<rect id="XMLID_100_" x="168" y="32.3" class="st1" width="1.9" height="8.1"/>
<polygon id="XMLID_99_" class="st1" points="171.3,32.3 173.1,32.3 175.4,36.8 175.4,32.3 177.2,32.3 177.2,40.4 175.4,40.4 
	173.1,35.9 173.1,40.4 171.3,40.4 "/>
<path id="XMLID_98_" class="st1" d="M181.6,37.4v-1.7h3v3.4c-0.6,0.5-1.1,0.8-1.5,1c-0.4,0.2-0.9,0.3-1.5,0.3
	c-0.7,0-1.3-0.2-1.8-0.5c-0.5-0.3-0.8-0.8-1.1-1.5c-0.3-0.6-0.4-1.4-0.4-2.2c0-0.9,0.1-1.6,0.4-2.3c0.3-0.7,0.7-1.1,1.2-1.5
	c0.4-0.3,1-0.4,1.7-0.4c0.7,0,1.2,0.1,1.5,0.2c0.3,0.2,0.6,0.4,0.8,0.8c0.2,0.3,0.4,0.8,0.5,1.3l-1.8,0.4c-0.1-0.3-0.2-0.5-0.4-0.7
	c-0.2-0.2-0.4-0.2-0.7-0.2c-0.4,0-0.8,0.2-1,0.6c-0.2,0.4-0.4,1-0.4,1.8c0,0.9,0.1,1.5,0.4,1.9c0.3,0.4,0.6,0.6,1,0.6
	c0.2,0,0.4,0,0.6-0.1c0.2-0.1,0.4-0.2,0.7-0.4v-0.8H181.6z"/>
<path id="XMLID_97_" class="st1" d="M191.7,37.4v-1.7h3v3.4c-0.6,0.5-1.1,0.8-1.5,1c-0.4,0.2-0.9,0.3-1.5,0.3
	c-0.7,0-1.3-0.2-1.8-0.5c-0.5-0.3-0.8-0.8-1.1-1.5c-0.3-0.6-0.4-1.4-0.4-2.2c0-0.9,0.1-1.6,0.4-2.3c0.3-0.7,0.7-1.1,1.2-1.5
	c0.4-0.3,1-0.4,1.7-0.4c0.7,0,1.2,0.1,1.5,0.2c0.3,0.2,0.6,0.4,0.8,0.8c0.2,0.3,0.4,0.8,0.5,1.3l-1.8,0.4c-0.1-0.3-0.2-0.5-0.4-0.7
	c-0.2-0.2-0.4-0.2-0.7-0.2c-0.4,0-0.8,0.2-1,0.6c-0.2,0.4-0.4,1-0.4,1.8c0,0.9,0.1,1.5,0.4,1.9c0.3,0.4,0.6,0.6,1.1,0.6
	c0.2,0,0.4,0,0.6-0.1c0.2-0.1,0.4-0.2,0.7-0.4v-0.8H191.7z"/>
<path id="XMLID_94_" class="st1" d="M195.8,40.4v-8.1h3.2c0.6,0,1,0.1,1.4,0.2c0.3,0.1,0.6,0.4,0.8,0.7c0.2,0.4,0.3,0.8,0.3,1.3
	c0,0.4-0.1,0.8-0.2,1.2c-0.1,0.3-0.3,0.6-0.6,0.8c-0.2,0.1-0.4,0.2-0.7,0.3c0.2,0.1,0.4,0.2,0.5,0.3c0.1,0.1,0.2,0.2,0.3,0.4
	c0.1,0.2,0.2,0.4,0.3,0.5l0.9,2.3h-2.2l-1-2.5c-0.1-0.3-0.2-0.5-0.4-0.6c-0.1-0.1-0.3-0.2-0.5-0.2h-0.2v3.3H195.8z M197.7,35.6h0.8
	c0.1,0,0.3,0,0.5-0.1c0.1,0,0.2-0.1,0.3-0.3c0.1-0.1,0.1-0.3,0.1-0.5c0-0.3-0.1-0.5-0.2-0.6c-0.1-0.1-0.4-0.2-0.7-0.2h-0.8V35.6z"/>
<path id="XMLID_91_" class="st1" d="M202.1,36.3c0-1.3,0.3-2.3,0.8-3.1s1.3-1.1,2.4-1.1c1,0,1.8,0.4,2.4,1.1c0.6,0.7,0.8,1.7,0.8,3
	c0,0.9-0.1,1.7-0.4,2.3c-0.2,0.6-0.6,1.1-1.1,1.4c-0.5,0.3-1,0.5-1.7,0.5c-0.7,0-1.3-0.1-1.7-0.4c-0.5-0.3-0.8-0.8-1.1-1.4
	C202.3,38.1,202.1,37.3,202.1,36.3 M204,36.4c0,0.8,0.1,1.4,0.4,1.8c0.2,0.4,0.5,0.5,0.9,0.5c0.4,0,0.7-0.2,1-0.5
	c0.2-0.3,0.3-1,0.3-1.9c0-0.8-0.1-1.3-0.4-1.7c-0.2-0.4-0.6-0.5-1-0.5c-0.4,0-0.7,0.2-0.9,0.5C204.2,34.9,204,35.5,204,36.4"/>
<path id="XMLID_90_" class="st1" d="M213.6,32.3h1.9v4.8c0,0.5-0.1,0.9-0.2,1.4c-0.1,0.4-0.3,0.8-0.5,1.1c-0.2,0.3-0.5,0.5-0.8,0.7
	c-0.4,0.2-0.8,0.3-1.3,0.3c-0.3,0-0.6,0-1-0.1c-0.4-0.1-0.7-0.2-0.9-0.3c-0.2-0.2-0.5-0.4-0.7-0.7c-0.2-0.3-0.3-0.6-0.4-0.9
	c-0.1-0.5-0.2-1-0.2-1.4v-4.8h1.9v4.9c0,0.4,0.1,0.8,0.3,1c0.2,0.2,0.5,0.4,0.8,0.4c0.3,0,0.6-0.1,0.8-0.4c0.2-0.2,0.3-0.6,0.3-1
	V32.3z"/>
<path id="XMLID_87_" class="st1" d="M216.8,32.3h3.2c0.7,0,1.2,0.2,1.6,0.6c0.3,0.4,0.5,1,0.5,1.8c0,0.8-0.2,1.5-0.6,1.9
	c-0.4,0.5-0.9,0.7-1.7,0.7h-1v3h-1.9V32.3z M218.7,35.7h0.5c0.4,0,0.6-0.1,0.8-0.2c0.1-0.2,0.2-0.4,0.2-0.6c0-0.3-0.1-0.5-0.2-0.6
	c-0.1-0.2-0.4-0.3-0.7-0.3h-0.5V35.7z"/>
<path id="XMLID_82_" class="st3" d="M54.4,12.3l1.4,1.6l-1.1,1.5l-1.4-1.7L54.4,12.3z M53.7,23.1c-0.8-0.7,0-2.8,0.4-3.6
	c0.1-0.2,0.2-0.4,0.3-0.6c0.1-0.2,0.2-0.4,0.4-0.6h-0.2l1-2.2c0.4,0.3,0.8,0.6,1.2,1.2c0.9,1.1,1.8,4.1-0.4,5.8
	c-0.2,0.2-0.5,0.3-0.7,0.3C55,23.7,54.2,23.5,53.7,23.1 M55,18.6c-0.1,0.1-0.1,0.2-0.2,0.3c-0.1,0.1-0.1,0.2-0.2,0.4l-0.2,0.4
	c0,0.1-0.1,0.2-0.1,0.3l-0.1,0.4c0,0.2,0,0.4,0.1,0.5c0.1,0.1,0.2,0.1,0.3,0.2c0.1,0,0.2,0,0.2,0.1l0.6,0.1c0.2,0,0.3,0,0.5-0.1
	c0.1,0,0.3-0.1,0.4-0.2c0-0.2,0-0.4-0.1-0.6c-0.1-0.2-0.2-0.4-0.3-0.6c-0.1-0.2-0.3-0.4-0.5-0.6C55.4,18.9,55.2,18.8,55,18.6
	 M56.8,12.3l1.3,1.6l-1.1,1.5l-1.4-1.7L56.8,12.3z"/>
<path id="XMLID_81_" class="st3" d="M61.2,19.6l0.1-0.4l0.2-0.7l0.4-1.2c0,0,0.2,0.1,0.4,0.3c0.2,0.2,0.4,0.6,0.7,1.2
	c0.3,0.5,0.5,0.9,0.6,1.2c0.1,0.3,0.2,0.5,0.2,0.7c0,0.7,0,1.2-0.1,1.6c0,0.3-0.1,0.6-0.1,0.8c0,0.2-0.1,0.4-0.2,0.8
	c-0.1,0.3-0.2,0.5-0.2,0.7c0,0.1-0.1,0.3-0.2,0.5c-0.1,0.2-0.1,0.3-0.2,0.5c-0.1,0.1-0.1,0.2-0.2,0.3c-0.1,0.1-0.2,0.3-0.5,0.6
	c-0.2,0.3-0.5,0.4-0.7,0.4c-0.4,0-0.9-0.1-1.5-0.3l-1.1-0.5l-0.2-0.1c-0.1,0-0.1-0.1-0.2-0.1c-0.1,0-0.1-0.1-0.2-0.1
	c0,0-0.1-0.1-0.2-0.2l-0.3-0.3l-0.2-0.2l0.8,0.1l0.8,0.1l0.7-0.1L60,25l0.5-0.2c0.4-0.2,0.7-0.4,1-0.8c0.3-0.3,0.5-0.6,0.6-0.9
	c0.1-0.2,0.2-0.4,0.3-0.6l0.3-0.7c0-0.1-0.1-0.2-0.1-0.3c0-0.1-0.1-0.1-0.1-0.2L62,20.7L61.2,19.6z"/>
<path id="XMLID_80_" class="st3" d="M65.4,12.1c0.1,0.7,0.1,1.2,0.2,1.7c0,0.5,0,1,0.1,1.5l0.2,4c0,0.5,0,0.8,0.1,1.1
	c0,0.2,0.1,0.4,0.1,0.5c0.1,0,0.1,0,0.3,0.1c0.1,0,0.2,0,0.2,0h0.6v2.4h-1.7c-0.2,0-0.3-0.1-0.4-0.3c-0.1-0.1-0.1-0.3-0.2-0.7
	c0-0.5-0.1-1-0.1-1.4c0-0.4,0-0.8,0-1.3l-0.2-3.5c0-0.3,0-0.7-0.1-1.2c-0.1-0.4-0.1-0.8-0.1-1l0.6-1.1L65.4,12.1z"/>
<path id="XMLID_77_" class="st3" d="M73.3,21.7h-0.2l-0.2,0c-0.4,0-0.8,0.1-1.3,0.3c-0.2,0.1-0.4,0.2-0.6,0.3
	c-0.2,0.1-0.4,0.3-0.6,0.5c-0.2,0.2-0.4,0.3-0.6,0.4c-0.2,0.1-0.4,0.1-0.5,0.1h-2.1v-2.4h2.5c0.1,0,0.2,0,0.4,0
	c0.1,0,0.3-0.1,0.6-0.2l0.8-0.3c-0.4-0.3-0.8-0.6-1.3-0.8c-0.4-0.2-0.8-0.3-1.2-0.3c-0.4,0-0.8,0.1-1.1,0.4c0.2-1,0.5-1.7,0.9-2.1
	c0.4-0.4,0.8-0.6,1.1-0.6c0.2,0,0.5,0.1,0.8,0.2c0.3,0.1,0.5,0.2,0.6,0.3c0.1,0,0.2,0.1,0.4,0.3l1.1,0.9c0.2,0.1,0.4,0.3,0.6,0.4
	c0.2,0.1,0.5,0.3,0.9,0.5c0.4,0.2,0.8,0.3,1.4,0.4L75,20.9h1v2.4h-2.1c-0.2,0-0.3-0.1-0.4-0.3c-0.1-0.2-0.1-0.4-0.1-0.5
	c0-0.1,0-0.3,0-0.5V21.7z M71.7,24.2l1.4,1.6L72,27.4l-1.4-1.7L71.7,24.2z"/>
<path id="XMLID_73_" class="st3" d="M80.8,20.4c0,0.3,0.1,0.5,0.4,0.5h0.7v2.4h-0.4c-0.4,0-0.7-0.3-0.8-0.8c0,0.2,0,0.3,0,0.3
	c0,0-0.1,0.1-0.1,0.2c0,0.1-0.1,0.2-0.1,0.3H76v-2.4h3.8c0-0.2,0-0.4,0-0.5c0-0.1-0.1-0.3-0.1-0.5c-0.1-0.2-0.1-0.4-0.2-0.6
	c-0.1-0.2-0.2-0.4-0.3-0.7l1-2.2c0.2,0.6,0.4,1.1,0.4,1.6c0.1,0.5,0.1,0.9,0.2,1.3C80.7,19.8,80.8,20.1,80.8,20.4 M78,12.2l1.3,1.6
	l-1.1,1.5l-1.4-1.7L78,12.2z M80.3,12.2l1.4,1.6l-1.1,1.5l-1.4-1.7L80.3,12.2z"/>
<path id="XMLID_72_" class="st3" d="M81.9,23.3v-2.4h2c0-0.9-0.1-1.8-0.2-2.9l-0.3-2.6c-0.1-0.6-0.1-1-0.1-1.1l-0.1-0.7l1.1-1.8
	l0.4,6.2l0.1,2l0,0.6c0,0.2,0.1,0.3,0.3,0.3h0.6v2.4h-0.6c-0.2,0-0.4-0.1-0.6-0.2c-0.2-0.1-0.3-0.4-0.4-0.7l-0.3,0.7
	c-0.1,0.1-0.2,0.2-0.3,0.2H81.9z"/>
<path id="XMLID_71_" class="st3" d="M88.6,23.3h-2.8v-2.4h2c0-0.9-0.1-1.9-0.2-3.2c-0.2-1.2-0.2-2-0.3-2.4c0-0.4-0.1-0.7-0.1-1
	L87,13.8l0.8-1.8c0.1,0.3,0.2,0.6,0.3,0.8c0.1,0.2,0.2,0.4,0.4,0.7c0.1,0.3,0.4,0.5,0.7,0.7l-0.7,1.4l0.3,2.6l0.1,1.9
	c0,0.1,0,0.1,0,0.2l0,0.5l0,1.4c0,0.2,0,0.4-0.1,0.6C88.7,23,88.6,23.1,88.6,23.3"/>
<path id="XMLID_66_" class="st3" d="M95.5,15.7l1.1-2.1l0.3,2.2l0.3,2.7l0.2,1.8c0.1,0.3,0.2,0.5,0.4,0.7c0.1,0,0.2,0.1,0.4,0.1
	c0.1,0,0.2,0,0.4,0h0.3v2.4h-1.6c-0.2,0-0.4-0.1-0.5-0.2c0,0-0.1-0.1-0.1-0.1c0-0.1-0.1-0.2-0.1-0.3l-0.1-0.8l-0.2-1l-0.2,0.4
	L96,21.5l-0.2,0.6c0,0.1-0.1,0.2-0.1,0.3c0,0.1-0.1,0.2-0.1,0.2c-0.1,0.1-0.1,0.2-0.3,0.2l-1.4-0.4c-0.8-0.2-1.3-0.3-1.6-0.3
	l0.1-0.7l0.2-1c0.1-0.2,0.1-0.4,0.1-0.5c0-0.1,0.1-0.4,0.2-0.7c0.1-0.3,0.2-0.6,0.3-0.8c0.1-0.2,0.3-0.4,0.4-0.6
	c0.2-0.2,0.4-0.4,0.8-0.8c0.4-0.3,0.8-0.6,1.1-0.7L95.5,15.7z M93.3,11.9l0.9,1.3l-0.9,1.2l-0.9-1.3L93.3,11.9z M95.6,18
	c-0.4,0.2-0.7,0.4-1,0.6c-0.3,0.3-0.5,0.6-0.7,1c0.5,0.3,0.9,0.4,1.5,0.5c0.2,0,0.3,0,0.5-0.1c0.1,0,0.2-0.1,0.2-0.1
	c0,0,0.1-0.1,0.1-0.2l-0.3-2.2L95.6,18z M95.1,11.9l0.9,1.3l-0.9,1.2l-0.9-1.3L95.1,11.9z"/>
<path id="XMLID_62_" class="st3" d="M103.7,20.4c0,0.3,0.1,0.5,0.4,0.5h1v2.4h-0.8c-0.4,0-0.7-0.3-0.8-0.8c0,0.2,0,0.3,0,0.3
	c0,0-0.1,0.1-0.1,0.2c0,0.1-0.1,0.2-0.1,0.3h-4.4v-2.4h3.8c0-0.2,0-0.4,0-0.5c0-0.1-0.1-0.3-0.1-0.5c-0.1-0.2-0.1-0.4-0.2-0.6
	c-0.1-0.2-0.2-0.4-0.3-0.7l1-2.2c0.2,0.6,0.4,1.1,0.4,1.6c0.1,0.5,0.2,0.9,0.2,1.3C103.7,19.8,103.7,20.1,103.7,20.4 M100.5,24.4
	l1.4,1.6l-1.1,1.5l-1.4-1.7L100.5,24.4z M102.9,24.4l1.4,1.6l-1.1,1.5l-1.4-1.7L102.9,24.4z"/>
<path id="XMLID_59_" class="st3" d="M109.9,20.4c0,0.3,0.1,0.5,0.4,0.5h0.7v2.4h-0.5c-0.4,0-0.7-0.3-0.8-0.8c0,0.2,0,0.3,0,0.3
	c0,0-0.1,0.1-0.1,0.2c0,0.1-0.1,0.2-0.1,0.3h-4.4v-2.4h3.8c0-0.2,0-0.4,0-0.5c0-0.1-0.1-0.3-0.1-0.5c-0.1-0.2-0.1-0.4-0.2-0.6
	c-0.1-0.2-0.2-0.4-0.3-0.7l1-2.2c0.2,0.6,0.4,1.1,0.4,1.6c0.1,0.5,0.2,0.9,0.2,1.3C109.9,19.8,109.9,20.1,109.9,20.4 M108.1,12.2
	l1.4,1.6l-1.1,1.5l-1.4-1.6L108.1,12.2z"/>
<path id="XMLID_56_" class="st3" d="M112.2,20.9c0.1,0,0.1,0,0.2-0.1c0.1-0.1,0.1-0.1,0.1-0.3c0-0.6-0.1-1.5-0.2-2.8l-0.4-3.5
	l-0.2-0.6l0.8-1.9c0.1,0.3,0.2,0.6,0.3,0.8c0.1,0.3,0.2,0.5,0.3,0.7c0.1,0.2,0.2,0.3,0.3,0.4c0.1,0.1,0.2,0.2,0.4,0.3l-0.7,1.4
	c0,0.2,0,0.4,0,0.7c0,0.2,0.1,0.5,0.1,0.9c0,0.4,0.1,0.7,0.1,1.1c0,0.2,0,0.4,0,0.6c0,0.2,0,0.4-0.1,0.8c0,0.3-0.1,0.6-0.2,0.8
	c0.3-0.3,0.6-0.6,0.9-0.9c0.3-0.3,0.6-0.5,0.9-0.8c0.3-0.3,0.7-0.5,1-0.7c0.3-0.2,0.6-0.4,0.9-0.6c0.3-0.2,0.6-0.2,0.9-0.3
	c0.2,0,0.5,0.1,0.7,0.2c0.2,0.1,0.5,0.4,0.8,0.8c0.3,0.4,0.5,0.7,0.6,1c0.1,0.2,0.1,0.5,0.2,0.8c0,0.6,0,1.1-0.2,1.5
	c-0.1,0.5-0.2,0.8-0.3,1.1c-0.1,0.3-0.1,0.5-0.2,0.7h-8.3v-2.4H112.2z M116.8,19.1c-0.3,0-0.8,0.2-1.3,0.6c-0.5,0.3-1.1,0.8-1.8,1.3
	h4.7c0-0.4-0.2-0.8-0.5-1.2C117.6,19.3,117.2,19.1,116.8,19.1"/>
<path id="XMLID_53_" class="st3" d="M122.4,19.6c0.5-1.7,1.1-2.5,1.5-2.4c0.3,0.1,0.6,0.4,0.9,0.9c0.2,0.5,0.4,1,0.5,1.4
	c0.1,0.4,0.2,0.9,0.2,1.4h0.8v2.4h-0.9c-0.1,0.3-0.1,0.5-0.2,0.7c-0.9,3.1-2.4,3.7-4.9,2.1c-0.1-0.1-0.2-0.1-0.2-0.2
	c0-0.1,0.1-0.1,0.3-0.1l0.9,0.1c0.6,0,1.2-0.3,1.9-0.9c0.7-0.6,1.1-1.1,1.2-1.7c-0.2,0-0.4,0-0.5,0c-0.1,0-0.3,0-0.5-0.1
	c-0.3,0-0.6-0.2-0.9-0.3c-0.3-0.2-0.5-0.6-0.5-1.3C122,21.1,122.1,20.4,122.4,19.6 M124.4,20.9c0-0.4-0.1-0.8-0.3-1.2
	c-0.2-0.3-0.4-0.5-0.6-0.5c-0.3,0-0.5,0.3-0.7,0.8c0,0.1,0,0.2,0,0.2c0,0,0,0.1,0.1,0.2c0.1,0.1,0.2,0.1,0.4,0.2
	c0.2,0.1,0.4,0.1,0.5,0.2C124,20.9,124.2,20.9,124.4,20.9"/>
<path id="XMLID_52_" class="st3" d="M129,23.3h-2.8v-2.4h2c0-0.9-0.1-1.9-0.2-3.2c-0.2-1.2-0.2-2-0.3-2.4c0-0.4-0.1-0.7-0.1-1
	l-0.2-0.6l0.8-1.8c0.1,0.3,0.2,0.6,0.3,0.8c0.1,0.2,0.2,0.4,0.4,0.7c0.1,0.3,0.4,0.5,0.7,0.7l-0.7,1.4l0.2,2.6l0.1,1.9
	c0,0.1,0,0.1,0,0.2l0,0.5l0,1.4c0,0.2,0,0.4-0.1,0.6C129.1,23,129.1,23.1,129,23.3"/>
<path id="XMLID_51_" class="st3" d="M129.9,15l1.2-2.5c0,0.5,0,1.4,0.2,2.7c0.1,1.3,0.2,2.3,0.2,2.9c0.1,1.3-0.1,4.2-0.8,5.1
	c0-0.6,0-1.3-0.1-2.2c-0.1-0.9-0.1-1.5-0.2-2L129.9,15z"/>
<path id="XMLID_46_" class="st3" d="M137.9,15.7l1.1-2.1l0.3,2.2l0.3,2.7l0.2,1.8c0.1,0.3,0.2,0.5,0.4,0.7c0.1,0,0.2,0.1,0.4,0.1
	c0.1,0,0.2,0,0.4,0h0.3v2.4h-1.6c-0.2,0-0.4-0.1-0.5-0.2c0,0,0-0.1-0.1-0.1c0-0.1-0.1-0.2-0.1-0.3l-0.2-0.8l-0.2-1l-0.2,0.4
	l-0.1,0.3l-0.2,0.6c0,0.1-0.1,0.2-0.1,0.3c0,0.1-0.1,0.2-0.2,0.2c0,0.1-0.1,0.2-0.3,0.2l-1.4-0.4c-0.8-0.2-1.3-0.3-1.6-0.3l0.1-0.7
	l0.2-1c0.1-0.2,0.1-0.4,0.2-0.5c0-0.1,0.1-0.4,0.2-0.7c0.1-0.3,0.2-0.6,0.3-0.8c0.1-0.2,0.3-0.4,0.4-0.6c0.2-0.2,0.4-0.4,0.8-0.8
	c0.4-0.3,0.8-0.6,1.1-0.7L137.9,15.7z M135.7,11.9l0.9,1.3l-0.9,1.2l-0.9-1.3L135.7,11.9z M138,18c-0.4,0.2-0.7,0.4-1,0.6
	c-0.3,0.3-0.5,0.6-0.7,1c0.4,0.3,0.9,0.4,1.5,0.5c0.2,0,0.3,0,0.5-0.1c0.1,0,0.2-0.1,0.2-0.1c0,0,0.1-0.1,0.1-0.2l-0.3-2.2L138,18z
	 M137.5,11.9l0.9,1.3l-0.9,1.2l-0.9-1.3L137.5,11.9z"/>
<path id="XMLID_42_" class="st3" d="M145,18.3l1-2.3c0.2,0.5,0.5,1.3,0.6,2.2c0.2,0.9,0.2,1.8,0.3,2.7v0.6c0,0.3,0,0.6-0.1,0.8
	c0,0.2,0,0.4-0.1,0.6c0,0.1-0.1,0.3-0.1,0.4h-5.2v-2.4h4.5c0-0.4-0.1-0.8-0.2-1.1c-0.1-0.3-0.2-0.6-0.3-0.8
	C145.2,18.8,145.1,18.5,145,18.3 M142.6,24.3l1.4,1.6l-1.1,1.5l-1.4-1.7L142.6,24.3z M145,24.3l1.4,1.6l-1.1,1.5l-1.4-1.7L145,24.3z
	"/>
<path id="XMLID_41_" class="st3" d="M152.5,22.8c-0.2,0.6-0.4,1.2-0.6,1.7c-0.2,0.5-0.4,0.9-0.7,1.3c-0.2,0.4-0.5,0.7-0.7,0.9
	c-0.2,0.2-0.3,0.3-0.5,0.3c-0.1,0-0.2,0.1-0.4,0.1c-0.1,0-0.2,0-0.2,0c-0.3,0-0.5-0.1-0.8-0.3l-0.5-0.4c-0.1-0.1-0.2-0.1-0.3-0.2
	c-0.1-0.1-0.2-0.1-0.3-0.2c-0.1-0.1-0.2-0.1-0.3-0.2l-0.4-0.3c-0.2-0.1-0.2-0.2-0.2-0.4c0,0,0-0.1,0.1-0.1l0.1,0
	c0.1,0.1,0.2,0.1,0.4,0.1c0.2,0,0.4,0,0.6,0.1c0.2,0,0.3,0,0.4,0c0.1,0,0.3,0,0.4,0c0.2,0,0.4,0,0.6-0.1c0.2,0,0.6-0.3,1.3-1
	c0.7-0.6,1-1.2,1.2-1.7c0-0.1,0-0.2-0.1-0.3c0-0.1-0.1-0.5-0.4-0.9c-0.2-0.5-0.4-0.9-0.7-1.1l0.9-2.1c0,0.1,0.1,0.2,0.2,0.5l0.3,0.7
	l0.3,0.7c0.1,0.2,0.2,0.4,0.3,0.5c0,0.1,0.1,0.1,0.1,0.2c0.1,0.1,0.2,0.2,0.3,0.3s0.4,0.2,0.6,0.2h0.5v2.4h-1
	C153,23.3,152.8,23.1,152.5,22.8"/>
<path id="XMLID_38_" class="st3" d="M163.7,23.3h-9.5v-2.4h1.2c0.1,0,0.1,0,0.2-0.1c0.1-0.1,0.1-0.1,0.1-0.3c0-0.6-0.1-1.5-0.2-2.8
	l-0.4-3.5l-0.2-0.6l0.8-1.9c0.1,0.3,0.2,0.6,0.3,0.8c0.1,0.3,0.2,0.5,0.3,0.7c0.1,0.2,0.2,0.3,0.3,0.4c0.1,0.1,0.2,0.2,0.4,0.3
	l-0.7,1.4c0,0.2,0,0.4,0,0.7c0,0.2,0.1,0.5,0.1,0.9c0,0.4,0.1,0.7,0.1,1.1c0,0.2,0,0.4,0,0.6c0,0.2,0,0.4-0.1,0.8
	c0,0.3-0.1,0.6-0.2,0.8c0.3-0.3,0.6-0.6,0.9-0.9c0.3-0.3,0.6-0.5,0.9-0.8c0.3-0.3,0.7-0.5,1-0.7c0.3-0.2,0.6-0.4,0.9-0.6
	c0.3-0.2,0.6-0.2,0.9-0.3c0.2,0,0.5,0.1,0.7,0.2c0.2,0.1,0.5,0.4,0.8,0.8c0.3,0.4,0.5,0.7,0.6,1c0.1,0.2,0.1,0.5,0.2,0.8v0.2
	c0,0.1,0,0.2,0,0.3c0,0.2,0,0.3-0.1,0.5h0.6V23.3z M160,19.1c-0.3,0-0.8,0.2-1.3,0.6c-0.5,0.3-1.1,0.8-1.8,1.3h4.7
	c0-0.4-0.2-0.8-0.5-1.2C160.7,19.3,160.3,19.1,160,19.1"/>
<path id="XMLID_33_" class="st3" d="M167.4,17c0.4-0.4,0.9-0.6,1.5-0.6c0.1,0,0.1,0,0.2,0.1c0.1,0,0.2,0.1,0.3,0.3
	c0.1,0.1,0.2,0.3,0.2,0.5c0,0.2,0.1,0.3,0.2,0.6c0,0.3,0,0.6,0.1,0.9l0,0.6c0,0.2-0.1,0.4-0.1,0.7c-0.1,0.2-0.1,0.4-0.2,0.5
	c-0.1,0.1-0.1,0.3-0.2,0.4h1.3v2.4h-6.8v-2.4h1.8c0-0.1-0.1-0.2-0.1-0.3v-0.1c0-0.2,0-0.4,0.1-0.5l0.2-0.7c0.1-0.3,0.3-0.6,0.7-1.1
	C166.8,17.7,167.1,17.3,167.4,17 M165.8,12.2l1.3,1.6l-1.1,1.5l-1.4-1.7L165.8,12.2z M168.5,20.3c0-0.2,0-0.4-0.1-0.6
	c0-0.2-0.1-0.4-0.2-0.7c-0.1-0.3-0.2-0.4-0.4-0.4c-0.2,0-0.5,0.1-0.7,0.3c-0.2,0.3-0.5,0.6-0.7,1.1c0.1,0.1,0.1,0.3,0.2,0.4
	c0.1,0.1,0.2,0.2,0.4,0.4c0.2,0.1,0.4,0.2,0.6,0.2c0.1,0,0.1,0,0.2-0.1c0.1,0,0.2-0.1,0.2-0.1c0.1,0,0.1-0.1,0.2-0.2
	C168.3,20.5,168.4,20.4,168.5,20.3 M168.2,12.2l1.4,1.6l-1.1,1.5l-1.4-1.7L168.2,12.2z"/>
<path id="XMLID_32_" class="st3" d="M173.3,23.3h-2.8v-2.4h2c0-0.9-0.1-1.9-0.2-3.2c-0.1-1.2-0.2-2-0.3-2.4c0-0.4-0.1-0.7-0.1-1
	l-0.2-0.6l0.8-1.8c0.1,0.3,0.2,0.6,0.3,0.8c0.1,0.2,0.2,0.4,0.4,0.7c0.1,0.3,0.4,0.5,0.7,0.7l-0.7,1.4l0.2,2.6l0.1,1.9
	c0,0.1,0,0.1,0,0.2l0,0.5l0,1.4c0,0.2,0,0.4-0.1,0.6C173.3,23,173.3,23.1,173.3,23.3"/>
<path id="XMLID_31_" class="st3" d="M174.1,15l1.2-2.5c0,0.5,0,1.4,0.2,2.7c0.1,1.3,0.2,2.3,0.2,2.9c0.1,1.3-0.1,4.2-0.8,5.1
	c0-0.6,0-1.3-0.1-2.2c-0.1-0.9-0.1-1.5-0.2-2L174.1,15z"/>
<path id="XMLID_14_" class="st3" d="M182.2,15.7l1.1-2.1l0.3,2.2l0.3,2.7l0.2,1.8c0.1,0.3,0.2,0.5,0.4,0.7c0.1,0,0.2,0.1,0.4,0.1
	c0.1,0,0.2,0,0.4,0h0.3v2.4H184c-0.2,0-0.4-0.1-0.5-0.2c0,0-0.1-0.1-0.1-0.1c0-0.1-0.1-0.2-0.1-0.3l-0.2-0.8l-0.2-1l-0.2,0.4
	l-0.1,0.3l-0.2,0.6c0,0.1-0.1,0.2-0.1,0.3c0,0.1-0.1,0.2-0.2,0.2c0,0.1-0.1,0.2-0.3,0.2l-1.4-0.4c-0.8-0.2-1.3-0.3-1.6-0.3l0.1-0.7
	l0.2-1c0.1-0.2,0.1-0.4,0.1-0.5c0-0.1,0.1-0.4,0.2-0.7c0.1-0.3,0.2-0.6,0.3-0.8c0.1-0.2,0.3-0.4,0.4-0.6c0.2-0.2,0.4-0.4,0.8-0.8
	c0.4-0.3,0.8-0.6,1.1-0.7L182.2,15.7z M180,11.9l0.9,1.3l-0.9,1.2l-0.9-1.3L180,11.9z M182.3,18c-0.4,0.2-0.7,0.4-1,0.6
	c-0.3,0.3-0.5,0.6-0.7,1c0.4,0.3,0.9,0.4,1.5,0.5c0.2,0,0.3,0,0.5-0.1c0.1,0,0.2-0.1,0.2-0.1c0,0,0.1-0.1,0.1-0.2l-0.3-2.2L182.3,18
	z M181.7,11.9l0.9,1.3l-0.9,1.2l-0.9-1.3L181.7,11.9z"/>
<path id="XMLID_13_" class="st3" d="M192.4,23.1c-0.2,0-0.5,0-0.7,0.1c-0.2,0-0.3,0-0.5,0.1c-0.1,0-0.2,0-0.3,0h-5.4v-2.4h1.9
	c-0.1-0.1-0.2-0.3-0.2-0.5c-0.1-0.2-0.1-0.3-0.2-0.4c0-0.1,0-0.2,0-0.3c0,0,0-0.1,0.1-0.3c0-0.2,0.1-0.5,0.2-1
	c0.1-0.5,0.5-1,1.2-1.6c0.7-0.6,1.3-0.9,1.8-0.9c0.5,0,1,0.4,1.5,1.3c0.5,0.8,0.8,1.6,0.9,2.2c-0.4-0.5-0.7-0.8-1.2-1.1
	c-0.4-0.2-0.8-0.3-1.3-0.3c-0.3,0-0.6,0-0.9,0.1c-0.2,0.1-0.4,0.2-0.6,0.3c-0.1,0.1-0.3,0.2-0.4,0.3c0.1,0.3,0.2,0.5,0.3,0.8
	c0.1,0.2,0.4,0.5,0.7,0.9c0.3,0.3,0.7,0.5,1.1,0.5c0.1,0,0.3,0,0.7,0c0.4,0,0.7,0,0.8,0c0.3,0,0.6,0,0.8,0c0.2,0,0.4,0,0.6,0
	L192.4,23.1z"/>
<path id="XMLID_10_" class="st3" d="M195.8,19.6c0.5-1.7,1.1-2.5,1.5-2.4c0.3,0.1,0.6,0.4,0.9,0.9c0.2,0.5,0.4,1,0.5,1.4
	c0.1,0.4,0.2,0.9,0.2,1.4h0.8v2.4h-0.9c-0.1,0.3-0.1,0.5-0.2,0.7c-0.9,3.1-2.4,3.7-4.9,2.1c-0.1-0.1-0.2-0.1-0.2-0.2
	c0-0.1,0.1-0.1,0.3-0.1l0.9,0.1c0.6,0,1.2-0.3,1.9-0.9c0.7-0.6,1.1-1.1,1.2-1.7c-0.2,0-0.4,0-0.5,0c-0.1,0-0.3,0-0.5-0.1
	c-0.3,0-0.6-0.2-0.9-0.3c-0.3-0.2-0.5-0.6-0.5-1.3C195.4,21.1,195.5,20.4,195.8,19.6 M197.8,20.9c0-0.4-0.1-0.8-0.3-1.2
	c-0.2-0.3-0.4-0.5-0.6-0.5c-0.3,0-0.5,0.3-0.7,0.8c0,0.1,0,0.2,0,0.2c0,0,0,0.1,0.1,0.2c0.1,0.1,0.2,0.1,0.4,0.2
	c0.2,0.1,0.4,0.1,0.5,0.2C197.4,20.9,197.6,20.9,197.8,20.9"/>
<path id="XMLID_7_" class="st3" d="M201.9,19.2c0-0.1,0.1-0.2,0.3-0.3l0.4-0.4c0.1-0.1,0.2-0.2,0.3-0.3c0.1-0.1,0.2-0.2,0.3-0.3
	c0.1-0.1,0.2-0.1,0.3-0.2c0.1-0.1,0.2-0.1,0.3-0.1c0.2-0.1,0.3-0.1,0.3-0.1c0.1,0,0.1,0,0.2,0c0.3,0,0.4,0.2,0.5,0.5
	c0,0.5,0,0.8,0.1,1.2c0,0.3,0.1,0.7,0.3,1.2c0.2,0.5,0.4,0.7,0.8,0.7h0.7v2.4h-1.5c0,0-0.1,0.2-0.2,0.5c-0.1,0.3-0.2,0.6-0.3,0.6
	l-3.1-2.6c0,0-0.1,0.1-0.1,0.2c0,0-0.1,0.1-0.1,0.3c0,0.1-0.1,0.3-0.1,0.6c-0.1,0.3-0.3,0.4-0.7,0.4h-0.8v-2.4h1.5
	c0,0,0.1-0.1,0.2-0.2c0.1-0.2,0.1-0.3,0.2-0.5l0.2-0.6C201.8,19.4,201.8,19.3,201.9,19.2 M203.7,19.8c-0.1-0.3-0.2-0.4-0.4-0.4
	c-0.1,0-0.1,0-0.2,0.1c-0.1,0-0.1,0.1-0.2,0.2c-0.1,0.1-0.1,0.1-0.2,0.2c0,0-0.1,0.1-0.1,0.2c0.2,0.3,0.4,0.5,0.7,0.8
	c0.3,0.3,0.6,0.4,0.8,0.5l0.1-0.4c-0.1-0.1-0.2-0.2-0.2-0.3L203.7,19.8z"/>
<path id="XMLID_4_" class="st3" d="M213.4,23.3c-0.2,0-0.3-0.1-0.4-0.3c-0.1-0.2-0.1-0.4-0.1-0.5c0-0.1,0-0.3,0-0.5v-0.2h-0.2
	l-0.2,0c-0.4,0-0.8,0.1-1.3,0.3c-0.2,0.1-0.4,0.2-0.6,0.3c-0.2,0.1-0.4,0.3-0.6,0.5c-0.2,0.2-0.4,0.3-0.6,0.4
	c-0.2,0.1-0.4,0.1-0.5,0.1h-2.1v-2.4h2.5c0.1,0,0.2,0,0.4,0c0.1,0,0.3-0.1,0.6-0.2l0.7-0.3c-0.4-0.3-0.8-0.6-1.3-0.8
	c-0.4-0.2-0.8-0.3-1.2-0.3c-0.4,0-0.8,0.1-1.1,0.4c0.2-1,0.5-1.7,0.9-2.1c0.4-0.4,0.8-0.6,1.1-0.6c0.2,0,0.5,0.1,0.8,0.2
	c0.3,0.1,0.5,0.2,0.6,0.3c0.1,0,0.2,0.1,0.4,0.3l1.1,0.9c0.2,0.1,0.4,0.3,0.6,0.4c0.2,0.1,0.5,0.3,0.9,0.5c0.4,0.2,0.8,0.3,1.4,0.4
	l-0.4,0.9h2.8c0-0.7-0.1-1.7-0.2-2.9c-0.1-1.2-0.2-2.1-0.3-2.7c-0.1-0.5-0.1-0.9-0.1-1l-0.2-0.6l0.9-1.9c0.1,0.2,0.1,0.4,0.2,0.8
	c0.1,0.3,0.2,0.6,0.3,0.7c0.2,0.3,0.4,0.6,0.7,0.7l-0.7,1.4l0.2,2.6l0.2,1.9c0,0,0,0.1,0,0.2c0,0,0.1,0.1,0.2,0.3
	c0.1,0.1,0.2,0.3,0.4,0.4c0.2,0.1,0.3,0.2,0.4,0.3c0.1,0.1,0.2,0.2,0.2,0.3c0.1,0.1,0.2,0.3,0.2,0.6c0,0.2-0.1,0.6-0.2,1.1
	c-0.1,0.5-0.3,0.9-0.4,1.3L219,24c-0.1-0.1-0.2-0.3-0.3-0.5c-0.1-0.2-0.3-0.2-0.5-0.2H213.4z M211.2,24.2l1.4,1.6l-1.1,1.5l-1.4-1.7
	L211.2,24.2z"/>
<path id="XMLID_3_" class="st3" d="M220.4,15l1.2-2.5c0,0.5,0,1.4,0.1,2.7c0.1,1.3,0.2,2.3,0.2,2.9c0.1,1.3-0.1,4.2-0.8,5.1
	c0-0.6,0-1.3-0.1-2.2c-0.1-0.9-0.1-1.5-0.2-2L220.4,15z"/>
</svg>
