<svg xmlns="http://www.w3.org/2000/svg" width="32.333" height="38.8" viewBox="0 0 32.333 38.8">
  <g id="bell" transform="translate(-2)">
    <path id="Path_6" data-name="Path 6" d="M33.329,27.343a10.828,10.828,0,0,1-3.846-8.285V14.55a11.326,11.326,0,0,0-9.7-11.187V1.617a1.617,1.617,0,0,0-3.233,0V3.363A11.324,11.324,0,0,0,6.85,14.55v4.507a10.84,10.84,0,0,1-3.861,8.3,2.829,2.829,0,0,0,1.84,4.978H31.5a2.829,2.829,0,0,0,1.825-4.991Z" fill="#e20025"/>
    <path id="Path_7" data-name="Path 7" d="M14.266,25.85A6.072,6.072,0,0,0,20.205,21H8.326A6.072,6.072,0,0,0,14.266,25.85Z" transform="translate(3.901 12.95)" fill="#e20025"/>
  </g>
</svg>
