<svg xmlns="http://www.w3.org/2000/svg" width="42.646" height="37.482" viewBox="0 0 42.646 37.482">
  <g id="shopping-cart_1_" data-name="shopping-cart (1)" transform="translate(0 0)">
    <path id="Path_1" data-name="Path 1" d="M13.827,24.988H36.4a1.245,1.245,0,0,0,1.2-.906l5-17.492A1.248,1.248,0,0,0,41.4,5H10.942L10.049.979A1.249,1.249,0,0,0,8.829,0H1.249a1.249,1.249,0,1,0,0,2.5H7.826l4.512,20.3a3.746,3.746,0,0,0,1.489,7.184H36.4a1.249,1.249,0,0,0,0-2.5H13.827a1.249,1.249,0,1,1,0-2.5Zm0,0" fill="#e20025"/>
    <path id="Path_2" data-name="Path 2" d="M151,363.752A3.748,3.748,0,1,0,154.749,360,3.752,3.752,0,0,0,151,363.752Zm0,0" transform="translate(-138.423 -330.018)" fill="#e20025"/>
    <path id="Path_3" data-name="Path 3" d="M362,363.752A3.748,3.748,0,1,0,365.752,360,3.752,3.752,0,0,0,362,363.752Zm0,0" transform="translate(-331.852 -330.018)" fill="#e20025"/>
  </g>
</svg>
