<svg xmlns="http://www.w3.org/2000/svg" width="27.066" height="30.795" viewBox="0 0 27.066 30.795">
  <g id="user_1_" data-name="user (1)" transform="translate(-31)">
    <g id="Group_2" data-name="Group 2" transform="translate(36.413)">
      <g id="Group_1" data-name="Group 1">
        <path id="Path_4" data-name="Path 4" d="M129.12,0a8.12,8.12,0,1,0,8.12,8.12A8.129,8.129,0,0,0,129.12,0Z" transform="translate(-121)"/>
      </g>
    </g>
    <g id="Group_4" data-name="Group 4" transform="translate(31 18.044)">
      <g id="Group_3" data-name="Group 3">
        <path id="Path_5" data-name="Path 5" d="M54.636,303.5a11.575,11.575,0,0,0-8.3-3.5H42.729a11.575,11.575,0,0,0-8.3,3.5A11.833,11.833,0,0,0,31,311.849a.9.9,0,0,0,.9.9H57.164a.9.9,0,0,0,.9-.9A11.833,11.833,0,0,0,54.636,303.5Z" transform="translate(-31 -300)"/>
      </g>
    </g>
  </g>
</svg>
