<svg xmlns="http://www.w3.org/2000/svg" width="38.702" height="34.167" viewBox="0 0 38.702 34.167">
  <g id="like" transform="translate(0 -30)">
    <g id="Group_8" data-name="Group 8" transform="translate(0 30)">
      <path id="Path_12" data-name="Path 12" d="M28.422,30A9.163,9.163,0,0,0,22.7,31.978,13.036,13.036,0,0,0,19.351,36,13.035,13.035,0,0,0,16,31.978,9.163,9.163,0,0,0,10.28,30C4.42,30,0,34.794,0,41.151c0,6.868,5.514,11.566,13.861,18.68,1.417,1.208,3.024,2.577,4.694,4.038a1.21,1.21,0,0,0,1.592,0c1.67-1.461,3.277-2.83,4.695-4.038C33.188,52.717,38.7,48.018,38.7,41.151,38.7,34.794,34.282,30,28.422,30Z" transform="translate(0 -30)" fill="#e20025"/>
    </g>
  </g>
</svg>
